<?xml version="1.0" encoding="UTF-8"?>
<svg id="Capa_1" data-name="Capa 1" xmlns="http://www.w3.org/2000/svg" xmlns:xlink="http://www.w3.org/1999/xlink" viewBox="0 0 1715.74 608.09">
  <defs>
    <style>
      .cls-1 {
        fill: url(#Degradado_sin_nombre_5);
      }

      .cls-2 {
        fill: none;
      }

      .cls-3 {
        fill: url(#Degradado_sin_nombre_4);
      }

      .cls-4 {
        fill: #405da6;
      }

      .cls-5 {
        clip-path: url(#clippath-1);
      }

      .cls-6 {
        fill: url(#Degradado_sin_nombre_3);
      }

      .cls-7 {
        clip-path: url(#clippath-2);
      }

      .cls-8 {
        clip-path: url(#clippath);
      }
    </style>
    <clipPath id="clippath">
      <path class="cls-2" d="M210.27,142.86c-12.39,14.37-29,37.04-41.17,68.2-20.14,51.54-16.37,96.15-14.54,115.24,1.55,16.12,4.93,48.31,22.45,84.54,33.37,69.02,93.08,101.09,112.64,110.55,11.05,5.34,86.77,40.53,176.93,14.87,54-15.37,88.1-45.46,94.94-51.66,29.21-26.45,47.48-57.28,46.98-57.67-.33-.26-9.5,12.54-24.47,27.83-20.41,20.85-41.73,36.25-55.06,44.1-49.53,29.17-110.14,25.66-129.89,23.88-22.26-1.99-81.23-10.29-134.46-56.48-48.29-41.91-64.65-91.39-67.94-101.91-18.87-60.33-5.87-111.42,0-130.44,0,0,57.07-150.83,214.69-150.83s213.33,123.65,213.33,123.65c-2.05-8.22-5.29-17.86-10.53-28.03-2.07-4.01-4.23-7.68-6.39-11.01-11.5-18.33-34.78-50.04-75.12-75.4-7.91-4.97-55.6-34.15-121.29-36.39-2.68-.09-5.34-.14-7.98-.14-106.85,0-179.64,73.08-193.12,87.1"/>
    </clipPath>
    <linearGradient id="Degradado_sin_nombre_4" data-name="Degradado sin nombre 4" x1="-1198.5" y1="80.47" x2="-1190.28" y2="80.47" gradientTransform="translate(5022.66 -68242.43) rotate(-89.98) scale(57.38 -57.38)" gradientUnits="userSpaceOnUse">
      <stop offset="0" stop-color="#aeca40"/>
      <stop offset=".02" stop-color="#aeca40"/>
      <stop offset=".61" stop-color="#00a660"/>
      <stop offset="1" stop-color="#00a660"/>
    </linearGradient>
    <clipPath id="clippath-1">
      <path class="cls-2" d="M190.57,284.17c8.12,1.76,18.41,4.57,29.89,9.17,8.01,3.21,18.17,7.29,28.87,14.61,17.76,12.14,21.85,22.83,47.22,47.56,1.17,1.14,5.61,5.45,11.9,10.6,10,8.19,16.7,11.96,18.77,13.1.57.31,5.28,2.89,10.09,4.84,18.67,7.58,37.91,5.5,44.16,4.76,7.73-.92,19.42-3.21,32.61-9.51-18.34-37.37-53.67-61.82-84.41-76.94-21.36-10.51-40.85-17.33-56.9-20.89,8.76-.05,21.77.58,37.03,4.08,43.95,10.09,71.51,36.04,82.04,46.2,10.75,10.38,26.72,28.28,39.57,55.03,2.59-12.49,8.21-47.96-10.7-83.23-29.72-55.44-94.62-63.42-111.93-64.2-1.68-.08-3.35-.11-5.03-.11-58.6,0-113.18,44.95-113.18,44.95"/>
    </clipPath>
    <linearGradient id="Degradado_sin_nombre_5" data-name="Degradado sin nombre 5" x1="-1148.43" y1="127.57" x2="-1140.21" y2="127.57" gradientTransform="translate(-3466.83 34249.63) rotate(90) scale(29.65 -29.65)" gradientUnits="userSpaceOnUse">
      <stop offset="0" stop-color="#00a660"/>
      <stop offset=".11" stop-color="#00a660"/>
      <stop offset=".85" stop-color="#aeca40"/>
      <stop offset="1" stop-color="#aeca40"/>
    </linearGradient>
    <clipPath id="clippath-2">
      <path class="cls-2" d="M461.65,287.8s-35.78,33.06-10.87,86.06c0,0,8.61-64.77,57.07-91.49,0,0-47.56,44.39-47.1,87.41,0,0,24.91,2.27,39.86-21.29,0,0,5.44-7.43,14.95-34.06,0,0,8.61-31.61,31.71-51.54,0,0-7.64-1.93-19.18-1.93-17.52,0-44.03,4.45-66.42,26.84"/>
    </clipPath>
    <linearGradient id="Degradado_sin_nombre_3" data-name="Degradado sin nombre 3" x1="-1101.95" y1="19.16" x2="-1093.73" y2="19.16" gradientTransform="translate(14551.49 562.8) scale(12.81 -12.81)" gradientUnits="userSpaceOnUse">
      <stop offset="0" stop-color="#aeca40"/>
      <stop offset=".28" stop-color="#aeca40"/>
      <stop offset="1" stop-color="#00a660"/>
    </linearGradient>
  </defs>
  <g class="cls-8">
    <rect class="cls-3" x="148.89" y="55.7" width="475.88" height="506.29"/>
  </g>
  <path class="cls-4" d="M415,103.91l-127.73,293.04s-8.15,28.08-43.48,26.27v5.89h96.93l-.45-5.89s-24.46,2.26-22.65-20.83l79.71-191.14,74.28,182.98s10.87,32.16-21.74,28.53l.45,6.34h143.58v-5.43s-30.8,3.17-43.48-30.8L415,103.91Z"/>
  <g class="cls-5">
    <rect class="cls-1" x="181.76" y="169.64" width="266.68" height="291.57" transform="translate(-123.33 396.41) rotate(-55.5)"/>
  </g>
  <g class="cls-7">
    <rect class="cls-6" x="404.6" y="236.56" width="163.92" height="161.7" transform="translate(-94.24 329.9) rotate(-34.35)"/>
  </g>
  <path class="cls-4" d="M770.17,351.65h-49.07v-1.72c4.43-.4,7.52-1.14,9.26-2.24,3.09-1.94,4.63-4.63,4.63-8.07,0-2.04-.7-4.78-2.09-8.21l-1.27-3.14-7.17-17.62h-32.86l-3.88,10.31-1.87,4.63c-2.24,5.48-3.36,9.78-3.36,12.92,0,1.84.41,3.56,1.23,5.15.82,1.59,1.93,2.89,3.32,3.88,1.94,1.34,4.43,2.14,7.47,2.39v1.72h-33.46v-1.72c2.64-.15,4.95-.8,6.95-1.94,1.99-1.14,3.93-2.99,5.83-5.53,1.59-2.04,3.15-4.67,4.67-7.88,1.52-3.21,3.52-8.03,6.01-14.45l27.33-70.42h4.26l32.49,78.49c2.44,5.93,4.38,10.16,5.82,12.7,1.44,2.54,3.01,4.46,4.71,5.75,1.2.9,2.56,1.58,4.11,2.05,1.54.47,3.86.88,6.95,1.23v1.72ZM723.27,307.59l-15.68-38.68-14.79,38.68h30.47Z"/>
  <path class="cls-4" d="M866.53,249.71l.9,32.49-1.72.15c-3.44-11.05-7.84-19.28-13.22-24.68-5.38-5.4-11.87-8.1-19.49-8.1-5.93,0-11.02,1.21-15.27,3.62-4.26,2.42-8.23,6.34-11.91,11.76-7.47,11.1-11.2,23.8-11.2,38.09,0,6.82.9,13.26,2.69,19.31,1.79,6.05,4.41,11.39,7.84,16.02,6.67,8.96,14.81,13.44,24.42,13.44,3.78,0,7.34-.8,10.68-2.39,3.33-1.59,6.07-3.78,8.21-6.57,2.94-3.88,4.41-8.49,4.41-13.82,0-4.93-1.33-8.49-4-10.68-2.66-2.19-7.06-3.29-13.18-3.29v-1.72h47.65v1.72c-4.38.4-7.46,1.01-9.22,1.83-1.77.82-3.07,2.23-3.92,4.22-1.59,3.75-1.49,10.21-1.42,13.07.07,2.58.16,5.37.3,8.36-1.01.49-2.49,1.21-4.27,2.06-4.35,2.07-6.52,3.11-8.33,3.87-4.22,1.78-7.62,2.59-10.7,3.33-3.83.91-10.19,2.39-18.15,2.39-8.76,0-16.67-1.49-23.71-4.48-7.05-2.99-12.76-7.27-17.14-12.84-3.29-4.18-5.81-9.16-7.58-14.94-1.77-5.77-2.65-11.9-2.65-18.37,0-8.91,1.59-17.2,4.78-24.87,3.19-7.67,7.67-13.99,13.44-18.97,4.73-4.03,10.18-7.14,16.36-9.33,6.17-2.19,12.7-3.29,19.57-3.29,3.98,0,7.68.37,11.09,1.12,3.41.75,7.03,1.97,10.87,3.66l4.41,2.02c1.09.45,2.09.67,2.99.67,1.99,0,3.51-1.62,4.56-4.85h1.94Z"/>
  <path class="cls-4" d="M987.23,350.33c-1.27-.25-3.09-.76-5.05-1.86-.89-.5-2.9-1.73-5.04-4.26-2.72-3.22-3.81-6.39-5.04-9.88-3.03-8.63-4.54-12.95-5.23-14.53-2.69-6.16-5.27-9.99-8.14-12.98-1.64-1.71-3.05-2.81-4.45-3.68-2.9-1.8-5.65-2.54-7.46-2.87,3.63-.8,6.54-1.64,8.7-2.54,2.17-.9,4.14-2.04,5.94-3.44,5.87-4.68,8.81-10.9,8.81-18.67,0-5.23-1.36-9.82-4.07-13.78-2.71-3.96-6.53-6.93-11.46-8.92-4.38-1.74-10.43-2.79-18.15-3.14-1.89-.05-5.85-.08-11.87-.08h-36v1.72c2.84.15,5.15.55,6.95,1.19,1.79.65,3.36,1.69,4.71,3.14,1.59,1.59,2.66,3.61,3.21,6.05.55,2.44.82,6.22.82,11.35v55.04c0,5.13-.27,8.91-.82,11.35-.55,2.44-1.62,4.46-3.21,6.05-1.34,1.39-2.9,2.43-4.67,3.1-1.77.67-4.1,1.08-6.98,1.23v1.72h47.72v-1.72c-2.89-.15-5.22-.56-6.98-1.23-1.77-.67-3.32-1.71-4.67-3.1-1.54-1.59-2.6-3.62-3.17-6.09-.57-2.46-.86-6.24-.86-11.31v-76.17h3.06c5.33,0,9.43.34,12.32,1.01,2.89.67,5.38,1.86,7.47,3.55,2.69,2.24,4.79,5.09,6.31,8.55,1.52,3.46,2.28,7.16,2.28,11.09,0,7.37-2.61,13.54-7.84,18.52-2.34,2.19-4.84,3.63-7.51,4.33-2.66.7-7.08,1.05-13.26,1.05.02.44.03.88.05,1.31,1.5-.04,3.81.07,6.45.96,0,0,2.33.65,4.33,2.13,2.52,1.86,5.35,4.36,8.74,11.13,3.03,6.05,5.94,14.1,7.15,19.74.61,2.87,1.22,4.3,2.42,7.17.44,1.04.95,2.17,1.94,3.39.28.35,1.37,1.66,3.2,2.81,3.12,1.96,6.44,2.23,7.84,2.32,4.8.33,14.07.52,26.15.1-1.54-.28-3.09-.57-4.63-.85Z"/>
  <path class="cls-4" d="M992.03,301.35c0-8.37,1.79-16.13,5.38-23.28,3.58-7.15,8.81-13.39,15.68-18.72,5.13-3.93,10.65-6.96,16.58-9.08,5.92-2.12,11.9-3.18,17.92-3.18,7.67,0,15.09,1.68,22.26,5.04,7.17,3.36,13.44,8.11,18.82,14.24,8.76,9.96,13.14,21.3,13.14,34,0,6.38-1.15,12.53-3.44,18.46-2.29,5.93-5.63,11.34-10.01,16.22-5.38,6.08-11.74,10.79-19.08,14.12-7.34,3.34-15.02,5.01-23.04,5.01s-15.48-1.62-22.7-4.86c-7.22-3.24-13.44-7.82-18.67-13.75-4.13-4.63-7.31-9.9-9.52-15.81-2.22-5.9-3.32-12.04-3.32-18.42ZM1010.1,302.48c0,14.45,3.93,26.63,11.8,36.55,3.53,4.43,7.28,7.66,11.24,9.68,3.96,2.02,8.53,3.03,13.7,3.03s9.82-1,13.78-2.99c3.96-1.99,7.73-5.23,11.31-9.72,7.87-9.96,11.8-22.25,11.8-36.84,0-8.02-1.08-15.61-3.25-22.76-2.17-7.15-5.22-13.22-9.15-18.2-3.19-4.08-6.73-7.06-10.64-8.93-3.91-1.87-8.53-2.8-13.85-2.8s-9.85.92-13.7,2.77c-3.86,1.84-7.43,4.83-10.72,8.97-3.93,4.93-6.97,10.99-9.11,18.16-2.14,7.17-3.21,14.87-3.21,23.09Z"/>
  <path class="cls-4" d="M1217.28,351.65h-49.07v-1.72c4.43-.4,7.52-1.14,9.26-2.24,3.09-1.94,4.63-4.63,4.63-8.07,0-2.04-.7-4.78-2.09-8.21l-1.27-3.14-7.17-17.62h-32.86l-3.88,10.31-1.87,4.63c-2.24,5.48-3.36,9.78-3.36,12.92,0,1.84.41,3.56,1.23,5.15.82,1.59,1.93,2.89,3.32,3.88,1.94,1.34,4.43,2.14,7.47,2.39v1.72h-33.46v-1.72c2.64-.15,4.95-.8,6.94-1.94,1.99-1.14,3.93-2.99,5.83-5.53,1.59-2.04,3.15-4.67,4.67-7.88,1.52-3.21,3.52-8.03,6.01-14.45l27.33-70.42h4.26l32.49,78.49c2.44,5.93,4.38,10.16,5.83,12.7,1.44,2.54,3.01,4.46,4.7,5.75,1.2.9,2.56,1.58,4.11,2.05,1.54.47,3.86.88,6.95,1.23v1.72ZM1170.38,307.59l-15.68-38.68-14.79,38.68h30.47Z"/>
  <path class="cls-4" d="M1220.14,351.65v-1.79c5.03,0,8.91-1.42,11.65-4.26,1.54-1.59,2.6-3.62,3.17-6.09.57-2.46.86-6.24.86-11.31v-55.04c0-5.28-.31-9.17-.93-11.69-.62-2.51-1.78-4.57-3.47-6.16-1.39-1.29-2.95-2.24-4.67-2.84-1.72-.6-3.92-.95-6.61-1.05v-1.72h47.72v1.72c-2.74.15-4.98.52-6.72,1.12-1.74.6-3.29,1.54-4.63,2.84-1.69,1.64-2.84,3.71-3.44,6.2-.6,2.49-.9,6.35-.9,11.58v43.09c0,6.62.17,11.55.52,14.79.35,3.24,1.02,5.88,2.02,7.92,1.74,3.58,4.33,6.21,7.77,7.88,3.44,1.67,7.99,2.5,13.67,2.5s10.92-.78,14.97-2.35c4.06-1.57,7.38-4,9.97-7.28,1.74-2.24,3.17-4.78,4.29-7.62,1.12-2.84,2.15-6.57,3.1-11.2l1.79.15-.97,30.62h-89.17Z"/>
  <path class="cls-4" d="M1307.98,249.71h49.29v1.72c-3.73.35-6.42.92-8.07,1.72-1.54.75-2.79,1.9-3.73,3.47-.95,1.57-1.42,3.27-1.42,5.12,0,1.3.12,2.44.37,3.44.25,1,1,3.16,2.24,6.5l22.11,60.12,21.43-52.72c2.99-7.42,4.48-12.82,4.48-16.21,0-1.89-.3-3.66-.9-5.3-.6-1.64-1.39-2.91-2.39-3.81-1-.85-2.09-1.44-3.29-1.79-1.19-.35-2.74-.52-4.63-.52v-1.72h33.23v1.72c-2.74.25-5.12.92-7.13,2.02-2.02,1.1-3.95,2.76-5.79,5-1.25,1.59-2.55,3.77-3.92,6.53-1.37,2.76-3.25,7.03-5.64,12.81l-30.62,73.86h-3.14l-29.72-76.32c-3.88-10.01-6.99-16.36-9.33-19.04-1.49-1.69-3.32-2.92-5.49-3.7-2.17-.77-4.82-1.16-7.95-1.16v-1.72Z"/>
  <path class="cls-4" d="M1522.56,351.65h-49.07v-1.72c4.43-.4,7.52-1.14,9.26-2.24,3.09-1.94,4.63-4.63,4.63-8.07,0-2.04-.7-4.78-2.09-8.21l-1.27-3.14-7.17-17.62h-32.86l-3.88,10.31-1.87,4.63c-2.24,5.48-3.36,9.78-3.36,12.92,0,1.84.41,3.56,1.23,5.15.82,1.59,1.93,2.89,3.32,3.88,1.94,1.34,4.43,2.14,7.47,2.39v1.72h-33.46v-1.72c2.64-.15,4.95-.8,6.94-1.94,1.99-1.14,3.93-2.99,5.83-5.53,1.59-2.04,3.15-4.67,4.67-7.88,1.52-3.21,3.52-8.03,6.01-14.45l27.33-70.42h4.26l32.49,78.49c2.44,5.93,4.38,10.16,5.83,12.7,1.44,2.54,3.01,4.46,4.7,5.75,1.2.9,2.56,1.58,4.11,2.05,1.54.47,3.86.88,6.95,1.23v1.72ZM1475.66,307.59l-15.68-38.68-14.79,38.68h30.47Z"/>
</svg>