<?xml version="1.0" encoding="UTF-8" standalone="no"?>
<!-- Created with Inkscape (http://www.inkscape.org/) -->

<svg
   version="1.1"
   id="svg1"
   width="1472.76"
   height="1440"
   viewBox="0 0 1472.76 1440"
   sodipodi:docname="AGROALVA logo.ai"
   xmlns:inkscape="http://www.inkscape.org/namespaces/inkscape"
   xmlns:sodipodi="http://sodipodi.sourceforge.net/DTD/sodipodi-0.dtd"
   xmlns="http://www.w3.org/2000/svg"
   xmlns:svg="http://www.w3.org/2000/svg">
  <defs
     id="defs1">
    <linearGradient
       x1="0"
       y1="0"
       x2="1"
       y2="0"
       gradientUnits="userSpaceOnUse"
       gradientTransform="matrix(0.1510093,573.84253,573.84253,-0.1510093,552.19629,259.33408)"
       spreadMethod="pad"
       id="linearGradient4">
      <stop
         style="stop-opacity:1;stop-color:#afec43"
         offset="0"
         id="stop1" />
      <stop
         style="stop-opacity:1;stop-color:#afec43"
         offset="0.0215155"
         id="stop2" />
      <stop
         style="stop-opacity:1;stop-color:#00a760"
         offset="0.614977"
         id="stop3" />
      <stop
         style="stop-opacity:1;stop-color:#00a760"
         offset="1"
         id="stop4" />
    </linearGradient>
    <clipPath
       clipPathUnits="userSpaceOnUse"
       id="clipPath6">
      <path
         d="M 0,1080 H 1104.571 V 0 H 0 Z"
         transform="translate(-584.07442,-779.35472)"
         id="path6" />
    </clipPath>
    <linearGradient
       x1="0"
       y1="0"
       x2="1"
       y2="0"
       gradientUnits="userSpaceOnUse"
       gradientTransform="matrix(244.30754,-167.93452,-167.93452,-244.30754,362.54602,617.10809)"
       spreadMethod="pad"
       id="linearGradient9">
      <stop
         style="stop-opacity:1;stop-color:#00a760"
         offset="0"
         id="stop6" />
      <stop
         style="stop-opacity:1;stop-color:#00a760"
         offset="0.112309"
         id="stop7" />
      <stop
         style="stop-opacity:1;stop-color:#afec43"
         offset="0.853037"
         id="stop8" />
      <stop
         style="stop-opacity:1;stop-color:#afec43"
         offset="1"
         id="stop9" />
    </linearGradient>
    <linearGradient
       x1="0"
       y1="0"
       x2="1"
       y2="0"
       gradientUnits="userSpaceOnUse"
       gradientTransform="matrix(105.75968,72.281418,72.281418,-105.75968,618.96875,485.90048)"
       spreadMethod="pad"
       id="linearGradient12">
      <stop
         style="stop-opacity:1;stop-color:#afec43"
         offset="0"
         id="stop10" />
      <stop
         style="stop-opacity:1;stop-color:#afec43"
         offset="0.280865"
         id="stop11" />
      <stop
         style="stop-opacity:1;stop-color:#00a760"
         offset="1"
         id="stop12" />
    </linearGradient>
  </defs>
  <sodipodi:namedview
     id="namedview1"
     pagecolor="#ffffff"
     bordercolor="#000000"
     borderopacity="0.25"
     inkscape:showpageshadow="2"
     inkscape:pageopacity="0.0"
     inkscape:pagecheckerboard="0"
     inkscape:deskcolor="#d1d1d1">
    <inkscape:page
       x="0"
       y="0"
       inkscape:label="1"
       id="page1"
       width="1472.76"
       height="1440"
       margin="322.76001 353.81732 322.76001 353.81866"
       bleed="0" />
  </sodipodi:namedview>
  <g
     id="layer-MC0"
     inkscape:groupmode="layer"
     inkscape:label="Capa 1">
    <path
       id="path4"
       d="m 335.003,731.966 c -15.072,-17.485 -35.276,-45.061 -50.092,-82.972 v 0 c -24.502,-62.7 -19.919,-116.975 -17.686,-140.201 v 0 c 1.885,-19.608 5.998,-58.771 27.314,-102.858 v 0 C 335.14,321.961 407.783,282.943 431.579,271.439 v 0 c 13.441,-6.499 105.569,-49.315 215.253,-18.087 v 0 c 65.697,18.704 107.18,55.313 115.505,62.851 v 0 c 35.542,32.183 57.763,69.685 57.156,70.164 v 0 c -0.403,0.32 -11.556,-15.256 -29.766,-33.862 v 0 C 764.896,327.133 738.958,308.399 722.74,298.848 v 0 C 662.482,263.355 588.738,267.628 564.717,269.801 v 0 c -27.076,2.417 -98.829,12.523 -163.589,68.72 v 0 c -58.755,50.986 -78.654,111.19 -82.656,123.984 v 0 c -22.957,73.404 -7.142,135.557 0,158.7 v 0 c 0,0 69.432,183.498 261.194,183.498 v 0 c 191.763,0 259.541,-150.435 259.541,-150.435 v 0 c -2.491,10.006 -6.431,21.724 -12.812,34.096 v 0 c -2.517,4.881 -5.145,9.342 -7.774,13.392 v 0 c -13.988,22.301 -42.311,60.883 -91.389,91.737 v 0 c -9.621,6.047 -67.643,41.553 -147.566,44.272 v 0 c -3.262,0.111 -6.498,0.165 -9.71,0.165 v 0 c -129.991,0 -218.548,-88.907 -234.953,-105.964"
       transform="matrix(1.3333333,0,0,-1.3333333,0,1440)"
       style="fill:url(#linearGradient4);stroke:none" />
    <path
       id="path5"
       d="m 0,0 -155.394,-356.524 c 0,0 -9.919,-34.165 -52.9,-31.961 v -7.163 h 117.923 l -0.551,7.163 c 0,0 -29.756,-2.755 -27.552,25.348 l 96.983,232.54 90.371,-222.621 c 0,0 13.225,-39.124 -26.45,-34.716 l 0.551,-7.714 h 174.681 v 6.612 c 0,0 -37.471,-3.857 -52.9,37.471 z"
       style="fill:#3b5ffe;fill-opacity:1;fill-rule:nonzero;stroke:none"
       transform="matrix(1.3333333,0,0,-1.3333333,778.76587,400.8604)"
       clip-path="url(#clipPath6)" />
    <path
       id="path9"
       d="m 311.033,560.039 c 9.885,-2.146 22.402,-5.554 36.369,-11.158 v 0 c 9.748,-3.91 22.102,-8.868 35.129,-17.771 v 0 c 21.612,-14.772 26.585,-27.771 57.446,-57.859 v 0 c 1.421,-1.385 6.821,-6.625 14.479,-12.893 v 0 c 12.172,-9.961 20.312,-14.547 22.833,-15.932 v 0 c 0.69,-0.379 6.421,-3.51 12.281,-5.891 v 0 c 22.712,-9.228 46.122,-6.69 53.728,-5.786 v 0 c 9.406,1.118 23.63,3.9 39.674,11.572 v 0 c -22.317,45.461 -65.298,75.217 -102.701,93.608 v 0 c -25.991,12.781 -49.702,21.079 -69.224,25.417 v 0 c 10.653,0.059 26.491,-0.7 45.048,-4.959 v 0 c 53.467,-12.272 86.999,-43.842 99.807,-56.207 v 0 c 13.082,-12.629 32.514,-34.406 48.147,-66.952 v 0 c 3.149,15.191 9.986,58.353 -13.02,101.264 v 0 c -36.157,67.445 -115.113,77.154 -136.174,78.101 v 0 c -2.048,0.092 -4.081,0.137 -6.122,0.136 v 0 c -71.288,-0.005 -137.7,-54.69 -137.7,-54.69"
       transform="matrix(1.3333333,0,0,-1.3333333,0,1440)"
       style="fill:url(#linearGradient9);stroke:none" />
    <path
       id="path12"
       d="m 640.831,555.631 c 0,0 -43.532,-40.225 -13.224,-104.698 v 0 c 0,0 10.47,78.8 69.431,111.31 v 0 c 0,0 -57.86,-54.001 -57.308,-106.35 v 0 c 0,0 30.307,-2.756 48.491,25.899 v 0 c 0,0 6.613,9.043 18.184,41.441 v 0 c 0,0 10.47,38.46 38.574,62.706 v 0 c 0,0 -9.297,2.345 -23.334,2.345 v 0 c -21.317,10e-4 -53.568,-5.408 -80.814,-32.653"
       transform="matrix(1.3333333,0,0,-1.3333333,0,1440)"
       style="fill:url(#linearGradient12);stroke:none" />
  </g>
</svg>
